<?xml version="1.0" encoding="utf-8"?>
<!-- Generator: Adobe Illustrator 16.0.2, SVG Export Plug-In . SVG Version: 6.00 Build 0)  -->
<!DOCTYPE svg PUBLIC "-//W3C//DTD SVG 1.1//EN" "http://www.w3.org/Graphics/SVG/1.1/DTD/svg11.dtd">
<svg version="1.1" id="Слой_1" xmlns="http://www.w3.org/2000/svg" xmlns:xlink="http://www.w3.org/1999/xlink" x="0px" y="0px"
	 width="192px" height="192px" viewBox="0 0 192 192" enable-background="new 0 0 192 192" xml:space="preserve">
<path fill-rule="evenodd" clip-rule="evenodd" fill="#00B0FF" d="M176.18,17.81c-37.85,25.22-80.22,28.37-102.73-7.69
	c-1.36-2.19-2.27-3.95-3.1-3.81c-0.92,0.14-1.17,2.31-1.6,5.78C65.08,41.45,39.08,65.64,5.16,64.75C3.11,64.7,0.8,64.12,0.6,64.93
	c-0.19,0.74,1.56,1.87,3.13,3.02c27.36,20.07,31.04,58.7,13.7,84.24c-0.84,1.25-1.46,1.84-1.03,2.35c0.52,0.62,1.72-0.1,3.06-0.72
	c32.42-14.87,67.42,1.13,79.83,27.96c0.99,2.13,1.61,4.04,2.69,3.92c1.36-0.14,0.88-2.44,1.15-4.74
	c3.43-27.92,27.39-55.69,65.94-53.54c1.48,0.06,2.35,0.3,2.65-0.4c0.3-0.7-0.75-1.29-1.97-2.36
	c-35.36-31.45-22.15-69.58,9.96-103.34C182,18.89,192.67,8.8,191.6,7.66C190.52,6.51,179.02,15.89,176.18,17.81z M85.77,114.62
	c-10.26-0.23-18.4-8.73-18.16-18.99c0.23-10.26,8.73-18.39,18.99-18.16c10.25,0.22,18.38,8.73,18.17,18.98
	C104.52,106.71,96.02,114.84,85.77,114.62z"/>
</svg>
